<?xml version="1.0" encoding="UTF-8" ?>
<!DOCTYPE svg PUBLIC "-//W3C//DTD SVG 1.1//EN" "http://www.w3.org/Graphics/SVG/1.1/DTD/svg11.dtd">
<svg width="1517pt" height="949pt" viewBox="0 0 1517 949" version="1.1" xmlns="http://www.w3.org/2000/svg">
<g id="#ffffffff">
</g>
<g id="#2f83c5ff">
<path fill="#2f83c5" opacity="1.00" d=" M 1296.08 0.00 L 1297.42 0.00 C 1304.27 3.05 1311.13 6.22 1317.12 10.82 C 1331.46 21.18 1341.24 36.90 1346.30 53.69 C 1348.34 59.46 1348.91 65.77 1351.62 71.27 C 1355.82 63.05 1356.91 53.72 1357.17 44.61 C 1373.39 48.64 1388.64 55.84 1403.27 63.81 C 1409.91 67.65 1416.80 71.23 1422.65 76.29 C 1429.55 82.13 1435.25 89.26 1440.21 96.79 C 1443.28 101.40 1445.80 106.38 1449.22 110.76 C 1460.50 125.49 1476.97 136.20 1495.06 140.38 C 1491.53 148.21 1487.15 155.62 1483.37 163.33 C 1473.89 181.53 1464.85 200.01 1454.32 217.63 C 1413.04 207.88 1367.57 215.39 1332.51 239.56 C 1317.36 250.16 1304.55 263.79 1293.51 278.54 C 1292.26 280.14 1290.34 282.34 1288.10 281.11 C 1286.09 279.73 1284.91 277.50 1283.52 275.58 C 1277.99 267.48 1273.90 258.28 1266.95 251.24 C 1268.12 277.63 1265.70 305.23 1252.94 328.86 C 1244.29 344.67 1232.50 358.79 1218.14 369.73 C 1198.46 368.66 1178.71 369.87 1159.15 372.15 C 1114.18 377.65 1070.32 391.03 1029.41 410.40 C 979.53 434.15 933.59 466.92 896.68 508.16 C 888.72 503.61 880.60 499.29 871.89 496.35 C 851.03 489.00 828.89 486.50 807.00 484.38 C 808.51 480.66 810.98 477.46 812.98 474.00 C 848.58 416.47 891.55 363.09 943.22 319.18 C 966.17 299.48 991.12 281.98 1018.18 268.36 C 1014.71 268.19 1011.40 269.42 1008.06 270.13 C 991.95 274.39 977.26 282.49 962.11 289.22 C 919.31 309.37 882.89 340.38 848.63 372.51 C 846.81 374.24 845.11 376.15 842.86 377.32 C 843.66 373.47 845.19 369.84 846.39 366.11 C 853.59 344.82 860.50 323.25 863.33 300.88 C 865.55 283.97 865.00 266.58 860.52 250.07 C 855.72 230.36 842.54 213.15 825.43 202.44 C 811.00 193.07 793.74 189.63 776.91 187.56 C 755.17 185.02 733.08 187.12 711.92 192.56 C 717.28 192.86 722.65 192.40 728.02 192.49 C 750.92 192.23 774.27 195.32 795.33 204.72 C 806.01 209.64 816.57 215.75 824.07 225.02 C 835.52 238.83 841.01 257.09 840.33 274.92 C 839.65 296.39 832.81 317.20 823.36 336.34 C 815.82 351.28 807.37 365.87 796.82 378.91 C 775.52 405.62 748.32 426.71 721.03 446.92 C 710.05 455.06 698.42 463.89 693.24 477.04 C 695.79 480.36 698.35 483.81 701.87 486.19 C 705.98 489.19 711.11 489.95 715.87 491.39 C 753.71 501.58 793.48 500.72 831.43 510.38 C 847.44 514.20 864.35 517.86 877.46 528.46 C 885.44 535.60 890.79 545.47 893.30 555.83 C 895.69 565.52 894.62 575.67 892.38 585.29 C 889.89 595.01 885.15 603.92 880.58 612.78 C 861.23 607.80 842.63 600.36 823.55 594.49 C 820.27 593.46 816.72 594.18 813.79 595.83 C 808.73 598.59 804.68 602.83 799.64 605.64 C 779.33 618.56 758.40 631.02 735.43 638.65 C 718.03 644.53 699.37 647.23 681.06 645.06 C 669.08 643.55 657.80 636.88 651.07 626.79 C 653.92 622.24 655.96 616.60 660.96 613.94 C 681.99 603.02 704.87 596.09 725.64 584.65 C 732.43 580.51 739.86 576.43 744.11 569.42 C 694.25 550.59 642.66 536.85 592.68 518.36 C 591.65 517.82 590.04 517.68 589.72 516.37 C 586.35 505.27 586.83 492.71 592.32 482.35 C 598.21 471.16 606.04 461.14 612.16 450.07 C 616.14 443.01 618.89 435.35 621.75 427.79 C 625.48 417.38 628.51 406.13 626.49 395.03 C 624.69 389.61 620.72 385.07 616.02 381.92 C 609.44 377.28 601.23 376.36 593.49 375.24 C 563.05 371.43 531.52 377.61 501.80 368.18 C 491.21 365.13 482.53 357.41 476.69 348.25 C 469.07 336.36 465.57 322.34 463.72 308.48 C 460.87 283.09 467.51 257.94 474.88 233.86 C 469.27 236.69 464.30 240.61 459.05 244.04 C 386.79 293.96 327.80 359.95 258.70 413.78 C 240.69 427.94 221.56 440.76 201.14 451.17 C 178.48 462.60 153.59 470.65 128.02 470.90 C 112.94 470.24 97.69 468.16 83.62 462.47 C 67.69 456.12 54.43 443.82 45.95 429.00 C 34.59 409.15 31.12 385.62 32.80 363.03 C 34.04 348.08 38.68 332.45 49.92 321.90 C 54.52 317.10 61.54 314.88 68.07 316.09 C 75.64 317.20 82.71 322.80 84.40 330.44 C 89.27 350.66 85.22 371.77 89.58 392.06 C 91.40 400.28 94.44 408.52 100.20 414.82 C 106.95 422.50 116.79 427.22 126.98 427.81 C 146.43 429.70 164.42 420.18 180.76 410.85 C 203.78 397.11 225.36 381.07 246.09 364.10 C 268.64 345.31 291.16 326.48 313.39 307.31 C 378.30 251.60 443.12 194.86 516.78 150.78 C 549.82 131.14 584.91 114.49 622.04 104.17 C 630.73 101.93 639.24 99.01 647.98 96.94 C 682.56 88.26 718.51 85.58 754.06 87.72 C 803.01 90.43 851.38 98.92 899.56 107.54 C 967.68 119.77 1036.50 132.42 1106.02 129.64 C 1134.72 128.37 1163.34 123.62 1190.69 114.70 C 1222.92 104.18 1253.54 87.63 1278.31 64.28 C 1278.85 41.90 1283.39 18.84 1296.08 0.00 Z" />
<path fill="#2f83c5" opacity="1.00" d=" M 258.28 646.19 C 270.83 645.53 283.44 646.09 296.01 645.91 C 304.94 646.02 313.89 645.68 322.81 646.08 C 322.66 684.79 322.78 723.50 322.75 762.20 C 322.98 762.35 323.42 762.66 323.64 762.81 C 334.66 747.98 351.65 737.77 369.88 734.87 C 386.41 732.33 404.12 734.67 418.57 743.43 C 430.39 750.47 439.24 761.76 444.63 774.30 C 452.43 792.09 453.94 811.84 453.59 831.04 C 453.61 868.57 453.56 906.09 453.61 943.62 C 432.44 943.62 411.27 943.48 390.10 943.69 C 389.53 941.18 389.77 938.61 389.76 936.08 C 389.75 905.04 389.76 874.01 389.76 842.98 C 389.70 831.90 390.34 820.60 387.27 809.81 C 385.23 802.27 381.23 794.86 374.56 790.49 C 367.40 785.73 358.26 784.80 349.94 786.25 C 338.30 788.35 328.64 797.42 324.67 808.40 C 323.39 812.83 322.79 817.44 322.75 822.04 C 322.71 862.58 322.82 903.12 322.70 943.65 C 301.26 943.52 279.82 943.62 258.38 943.60 C 258.37 844.47 258.55 745.32 258.28 646.19 Z" />
<path fill="#2f83c5" opacity="1.00" d=" M 1321.31 646.13 C 1327.19 645.66 1333.10 646.01 1339.00 645.91 C 1354.59 646.00 1370.20 645.71 1385.80 646.06 C 1385.78 685.13 1385.58 724.22 1385.90 763.29 C 1389.54 759.44 1392.67 755.09 1396.87 751.79 C 1411.56 738.85 1431.58 732.46 1451.05 734.12 C 1468.15 735.12 1485.09 742.63 1496.21 755.86 C 1508.39 770.02 1513.86 788.66 1515.76 806.93 C 1516.32 810.86 1515.94 814.91 1517.00 818.77 L 1517.00 943.83 C 1496.06 943.26 1475.05 943.76 1454.09 943.59 C 1452.03 943.82 1452.93 941.20 1452.73 940.05 C 1452.79 908.36 1452.74 876.67 1452.76 844.99 C 1452.62 836.34 1453.17 827.65 1452.08 819.06 C 1450.79 808.74 1447.32 797.69 1438.63 791.24 C 1425.00 781.56 1404.06 784.57 1393.76 797.81 C 1388.16 804.17 1385.81 812.65 1385.77 821.00 C 1385.69 861.88 1385.82 902.76 1385.71 943.63 C 1364.27 943.55 1342.84 943.58 1321.41 943.62 C 1321.35 844.46 1321.53 745.29 1321.31 646.13 Z" />
<path fill="#2f83c5" opacity="1.00" d=" M 116.91 660.56 C 139.13 656.06 162.08 656.04 184.54 658.70 C 198.03 660.48 211.63 663.15 223.95 669.14 C 223.93 671.51 223.20 673.78 222.56 676.04 C 218.66 690.67 214.80 705.32 210.83 719.93 C 191.41 711.75 170.02 708.38 149.02 709.79 C 129.47 711.08 109.82 717.90 95.21 731.25 C 80.13 744.71 71.58 764.23 68.88 784.02 C 66.31 803.36 67.35 823.52 74.12 841.94 C 79.64 857.10 89.75 870.69 103.23 879.67 C 119.23 890.52 138.88 894.75 157.99 894.68 C 176.08 894.57 194.17 891.55 211.25 885.61 C 214.56 902.37 217.75 919.16 220.92 935.95 C 200.44 944.56 178.00 946.96 156.00 948.08 C 149.33 948.88 142.64 947.87 135.96 947.77 C 104.36 946.12 72.24 936.79 47.52 916.41 C 31.78 903.64 19.61 886.69 11.90 867.99 C 5.21 852.13 2.03 835.05 0.56 817.98 C 1.29 810.71 1.23 803.33 0.74 796.05 C 2.15 762.31 14.17 728.32 37.47 703.43 C 58.27 680.84 86.97 666.47 116.91 660.56 Z" />
<path fill="#2f83c5" opacity="1.00" d=" M 956.14 694.28 C 976.92 689.69 997.57 684.47 1018.35 679.84 C 1018.68 699.38 1018.16 718.94 1018.60 738.47 C 1033.67 738.31 1048.74 738.62 1063.80 738.32 C 1064.63 753.96 1063.93 769.71 1064.15 785.40 C 1048.93 785.58 1033.71 785.37 1018.48 785.50 C 1018.41 811.03 1018.41 836.56 1018.49 862.08 C 1018.83 870.99 1019.24 880.73 1024.75 888.18 C 1029.17 894.11 1037.06 895.72 1044.06 895.57 C 1050.19 895.49 1056.32 894.87 1062.32 893.55 C 1062.74 909.75 1062.68 925.96 1062.92 942.16 C 1052.67 945.69 1041.83 947.11 1031.06 947.81 C 1011.64 949.48 990.44 945.69 975.48 932.40 C 964.02 922.22 959.19 906.84 957.27 892.08 C 955.32 877.78 956.08 863.33 955.93 848.95 C 955.84 827.76 956.13 806.56 955.78 785.37 C 946.73 785.66 937.68 785.24 928.63 785.60 C 928.00 783.80 928.25 781.88 928.23 780.02 C 928.28 766.15 928.17 752.27 928.28 738.39 C 937.51 738.46 946.74 738.47 955.97 738.39 C 956.02 723.69 955.69 708.97 956.14 694.28 Z" />
<path fill="#2f83c5" opacity="1.00" d=" M 543.18 747.22 C 561.15 736.71 582.44 732.94 603.06 734.09 C 620.25 734.94 637.57 740.05 651.44 750.49 C 665.59 760.96 675.55 776.33 681.22 792.86 C 688.63 814.87 689.99 838.85 685.58 861.63 C 641.60 861.59 597.62 861.52 553.64 861.66 C 554.37 872.21 560.12 882.12 568.68 888.26 C 580.03 896.53 594.30 899.60 608.11 900.09 C 627.09 900.46 646.24 898.25 664.36 892.45 C 665.57 892.03 666.82 891.74 668.10 891.59 C 670.65 906.15 673.88 920.60 676.28 935.18 C 652.70 944.52 627.22 947.72 602.04 948.44 C 594.66 947.71 587.21 947.80 579.87 946.61 C 563.18 944.27 546.70 938.86 532.76 929.23 C 520.10 920.62 509.88 908.54 503.32 894.72 C 496.15 879.87 493.06 863.33 492.67 846.92 C 492.16 826.02 496.61 804.87 506.36 786.31 C 514.76 770.26 527.42 756.28 543.18 747.22 M 567.91 785.88 C 559.22 794.18 554.60 805.98 553.18 817.75 C 578.20 817.80 603.22 817.68 628.23 817.81 C 628.41 806.18 624.70 793.97 616.45 785.52 C 603.60 772.88 580.72 773.46 567.91 785.88 Z" />
<path fill="#2f83c5" opacity="1.00" d=" M 758.89 750.86 C 781.20 735.51 809.71 731.28 836.13 735.33 C 852.30 737.88 867.90 744.90 879.82 756.24 C 896.39 771.93 905.27 794.20 908.27 816.50 C 910.17 831.48 910.35 846.96 906.81 861.70 C 876.90 861.45 846.97 861.66 817.06 861.59 C 803.06 861.75 789.03 861.28 775.06 861.83 C 776.00 871.47 780.73 880.71 788.33 886.79 C 799.13 895.66 813.30 899.11 827.00 899.97 C 848.07 900.83 869.34 898.08 889.37 891.39 C 892.42 905.93 895.15 920.55 897.84 935.16 C 877.21 943.23 855.10 947.02 833.04 947.91 C 830.69 948.00 828.40 948.53 826.08 948.64 C 803.87 947.89 780.97 944.85 761.37 933.66 C 740.45 922.25 725.12 901.86 718.85 878.99 C 710.27 847.87 713.21 813.23 728.72 784.72 C 735.99 771.32 746.31 759.53 758.89 750.86 M 788.13 787.14 C 780.43 795.42 775.66 806.56 774.96 817.82 C 799.93 817.69 824.91 817.77 849.89 817.78 C 849.71 804.73 845.29 790.64 834.47 782.56 C 820.66 772.74 799.72 774.68 788.13 787.14 Z" />
<path fill="#2f83c5" opacity="1.00" d=" M 1162.51 734.83 C 1182.95 733.04 1204.16 733.34 1223.64 740.50 C 1237.91 745.64 1250.67 755.35 1258.60 768.38 C 1265.51 779.44 1269.11 792.26 1270.71 805.13 C 1272.36 819.03 1271.54 833.05 1271.74 847.01 C 1272.08 879.24 1270.34 911.66 1274.89 943.69 C 1255.73 943.44 1236.57 943.65 1217.42 943.58 C 1215.89 936.76 1215.51 929.54 1213.10 923.02 C 1203.50 934.23 1190.29 942.06 1175.97 945.50 C 1168.79 947.38 1161.36 947.79 1154.02 948.57 C 1145.95 947.78 1137.75 947.13 1130.03 944.45 C 1116.09 939.96 1103.75 930.46 1096.29 917.79 C 1085.84 900.57 1085.20 878.64 1091.86 859.93 C 1097.79 843.38 1111.21 830.42 1126.72 822.66 C 1151.69 810.04 1180.23 807.10 1207.83 806.90 C 1208.08 800.65 1207.00 794.01 1202.91 789.06 C 1197.19 781.84 1187.71 779.15 1178.93 778.16 C 1156.34 775.99 1133.75 782.61 1113.95 793.15 C 1109.95 779.56 1106.04 765.96 1102.18 752.34 C 1120.63 742.01 1141.60 736.95 1162.51 734.83 M 1183.93 848.79 C 1174.92 850.57 1165.65 853.40 1158.72 859.71 C 1149.46 867.97 1148.01 883.16 1154.65 893.44 C 1160.61 902.06 1172.36 904.28 1182.12 902.50 C 1197.32 899.89 1210.70 885.84 1209.92 869.97 C 1209.95 862.16 1209.83 854.35 1209.98 846.54 C 1201.26 846.51 1192.51 847.22 1183.93 848.79 Z" />
</g>
</svg>
