<?xml version="1.0" encoding="UTF-8" ?>
<!DOCTYPE svg PUBLIC "-//W3C//DTD SVG 1.1//EN" "http://www.w3.org/Graphics/SVG/1.1/DTD/svg11.dtd">
<svg width="1000pt" height="1000pt" viewBox="0 0 1000 1000" version="1.1" xmlns="http://www.w3.org/2000/svg">
<g id="#2f83c5ff">
</g>
<g id="#ffffffff">
<path fill="#ffffff" opacity="1.00" d=" M 766.09 262.64 C 773.89 265.44 780.89 270.59 785.47 277.53 C 789.89 283.83 791.62 291.41 793.63 298.70 C 796.03 294.55 796.39 289.69 796.67 285.01 C 807.18 287.96 817.09 292.83 826.28 298.69 C 831.23 301.89 834.97 306.56 838.25 311.40 C 842.38 319.14 848.63 325.81 856.56 329.74 C 859.42 331.22 862.56 332.06 865.55 333.24 C 858.64 345.91 852.48 358.98 845.26 371.48 C 824.85 366.84 802.48 370.24 785.00 381.98 C 776.23 387.73 769.54 395.90 762.95 403.91 C 757.91 399.61 755.97 392.86 751.45 388.07 C 752.00 400.45 751.05 413.28 745.72 424.64 C 741.30 433.47 735.11 441.78 726.96 447.42 C 693.78 446.44 660.61 454.29 630.84 468.82 C 606.59 480.60 584.34 496.75 566.26 516.81 C 552.89 508.33 536.80 506.41 521.39 504.86 C 538.38 476.68 558.59 450.19 583.12 428.13 C 596.38 415.85 611.12 405.16 627.15 396.78 C 617.42 398.08 608.75 402.98 599.92 406.93 C 576.80 417.61 557.42 434.61 539.12 452.00 C 544.49 436.14 550.39 419.99 550.32 403.02 C 550.18 391.79 547.44 379.96 539.64 371.49 C 534.04 365.18 526.49 360.65 518.30 358.66 C 503.79 354.98 488.29 355.04 473.89 359.16 C 490.42 358.31 508.01 359.70 522.37 368.71 C 532.17 374.52 537.69 385.87 538.13 397.03 C 538.44 406.51 536.10 415.89 532.51 424.60 C 526.58 438.63 518.20 451.70 507.26 462.35 C 498.73 470.89 489.16 478.28 479.48 485.45 C 473.60 489.72 467.55 494.35 464.47 501.16 C 466.43 503.71 468.61 506.39 471.84 507.29 C 491.41 513.46 512.26 512.82 532.12 517.58 C 539.12 519.27 546.34 520.71 552.70 524.28 C 559.96 528.09 564.31 536.07 565.19 544.04 C 566.03 552.97 562.55 561.58 558.16 569.17 C 548.65 566.54 539.45 562.96 530.03 560.07 C 525.82 558.63 522.58 562.42 519.41 564.47 C 504.64 574.07 488.77 583.41 470.92 585.33 C 464.05 585.86 456.61 586.12 450.45 582.54 C 447.64 581.02 445.46 578.63 443.49 576.17 C 444.98 573.88 446.06 571.02 448.62 569.70 C 459.75 563.84 472.05 560.42 482.85 553.90 C 485.67 552.24 488.22 550.14 490.21 547.53 C 464.89 537.80 438.52 531.10 413.20 521.38 C 410.87 515.67 411.50 508.81 414.46 503.43 C 418.31 496.31 423.66 490.03 426.66 482.46 C 429.14 476.26 431.75 469.85 431.59 463.06 C 431.68 457.17 426.28 452.75 420.96 451.45 C 403.88 447.45 385.86 452.18 368.99 446.84 C 361.89 444.81 356.70 438.76 353.86 432.17 C 350.09 423.35 348.83 413.53 349.91 404.02 C 350.77 395.62 353.11 387.47 355.53 379.41 C 313.56 406.18 281.01 444.69 241.22 474.26 C 227.70 483.98 212.98 492.67 196.60 496.42 C 182.28 499.76 166.44 498.25 153.60 490.84 C 142.97 483.68 136.56 471.59 134.89 459.06 C 133.66 449.18 133.71 438.51 138.52 429.52 C 140.97 425.28 144.67 420.69 150.03 420.66 C 153.98 420.43 157.42 422.84 159.65 425.92 C 163.35 438.21 159.59 451.56 164.20 463.67 C 166.56 470.39 172.79 475.63 179.91 476.50 C 188.59 477.88 197.06 474.44 204.54 470.36 C 226.92 458.00 245.91 440.68 265.42 424.38 C 292.82 401.04 319.74 377.00 349.10 356.09 C 374.39 338.10 401.68 321.96 431.93 314.06 C 446.52 309.50 461.70 306.88 476.98 306.38 C 493.31 305.85 509.61 307.55 525.77 309.67 C 568.20 315.41 610.01 326.37 652.97 327.65 C 671.60 328.32 690.44 326.86 708.41 321.65 C 726.35 316.53 743.45 307.77 757.15 294.98 C 757.44 283.71 759.76 272.16 766.09 262.64 Z" />
<path fill="#ffffff" opacity="1.00" d=" M 247.25 585.74 C 257.94 585.76 268.63 585.73 279.33 585.76 C 279.37 605.33 279.29 624.91 279.37 644.48 C 282.38 641.11 285.49 637.73 289.40 635.39 C 302.72 626.81 322.33 627.77 333.49 639.52 C 342.12 648.68 344.69 661.81 344.75 674.01 C 344.71 694.19 344.84 714.37 344.68 734.55 C 334.09 734.44 323.51 734.54 312.93 734.49 C 312.90 715.68 312.93 696.86 312.91 678.05 C 312.86 672.05 312.12 665.58 308.31 660.71 C 304.34 655.62 296.98 654.51 291.07 656.31 C 284.06 658.49 279.18 665.63 279.37 672.94 C 279.28 693.45 279.37 713.97 279.33 734.49 C 268.66 734.54 257.98 734.45 247.31 734.54 C 247.16 694.46 247.30 654.37 247.24 614.29 C 247.26 604.77 247.24 595.26 247.25 585.74 Z" />
<path fill="#ffffff" opacity="1.00" d=" M 778.76 585.76 C 789.45 585.74 800.14 585.75 810.83 585.76 C 810.87 605.36 810.75 624.96 810.89 644.56 C 815.98 638.11 822.95 633.00 830.99 630.97 C 842.59 627.93 856.18 630.37 864.70 639.23 C 873.08 647.85 875.88 660.30 876.21 671.96 C 876.29 692.81 876.23 713.65 876.25 734.49 C 865.64 734.51 855.03 734.49 844.43 734.51 C 844.40 716.35 844.42 698.19 844.42 680.04 C 844.47 673.32 844.03 665.93 839.62 660.48 C 833.35 653.12 820.44 654.17 814.75 661.74 C 811.80 665.11 810.77 669.65 810.83 674.03 C 810.83 694.19 810.83 714.34 810.83 734.49 C 800.14 734.51 789.45 734.50 778.76 734.49 C 778.75 684.91 778.75 635.34 778.76 585.76 Z" />
<path fill="#ffffff" opacity="1.00" d=" M 156.08 600.04 C 173.98 590.95 194.90 589.61 214.49 592.75 C 219.84 593.77 225.35 594.83 230.11 597.61 C 227.87 605.95 225.72 614.31 223.41 622.64 C 207.95 616.47 189.62 615.00 174.32 622.39 C 162.81 627.90 155.08 639.50 152.89 651.90 C 150.46 665.60 151.65 680.74 159.53 692.57 C 165.68 701.89 176.19 707.67 187.10 709.34 C 199.32 711.18 211.96 709.59 223.60 705.57 C 225.25 713.97 226.86 722.38 228.43 730.80 C 216.56 735.43 203.68 736.79 191.02 736.76 C 175.40 736.68 159.44 733.12 146.32 724.35 C 132.98 715.37 123.79 701.00 120.36 685.37 C 116.66 668.44 117.61 650.24 124.21 634.13 C 130.22 619.38 141.83 607.11 156.08 600.04 Z" />
<path fill="#ffffff" opacity="1.00" d=" M 596.01 609.99 C 606.40 607.55 616.79 605.09 627.20 602.67 C 627.21 612.44 627.20 622.21 627.20 631.99 C 634.81 632.02 642.42 631.98 650.04 632.01 C 650.05 639.82 650.05 647.64 650.04 655.46 C 642.43 655.47 634.82 655.46 627.22 655.46 C 627.24 668.91 627.10 682.37 627.29 695.82 C 627.54 700.83 628.48 707.12 633.63 709.47 C 638.60 711.41 644.10 710.40 649.20 709.58 C 649.22 717.69 649.39 725.79 649.40 733.90 C 638.19 736.97 625.80 738.35 614.67 734.27 C 607.57 731.70 601.60 726.08 599.10 718.90 C 595.18 708.37 596.12 696.96 596.00 685.96 C 595.90 675.76 596.20 665.56 595.85 655.37 C 591.28 655.55 586.71 655.44 582.15 655.45 C 582.15 647.64 582.15 639.82 582.15 632.01 C 586.76 631.99 591.38 632.00 596.00 632.00 C 596.01 624.66 595.99 617.33 596.01 609.99 Z" />
<path fill="#ffffff" opacity="1.00" d=" M 381.47 642.43 C 391.18 633.26 404.85 629.22 418.02 629.77 C 430.23 629.91 442.70 634.82 450.46 644.49 C 461.39 658.03 463.80 676.76 460.81 693.48 C 438.75 693.59 416.70 693.36 394.64 693.59 C 395.30 698.76 397.85 703.73 402.14 706.79 C 407.53 710.81 414.34 712.41 420.95 712.77 C 431.44 713.19 442.00 711.79 451.97 708.49 C 453.37 715.74 454.73 722.99 456.18 730.23 C 443.46 735.29 429.60 737.02 415.98 736.71 C 402.88 736.32 389.31 732.50 379.52 723.43 C 370.16 714.93 365.38 702.37 364.56 689.95 C 363.15 672.75 368.62 654.38 381.47 642.43 M 401.79 655.78 C 397.46 659.91 395.38 665.80 394.46 671.59 C 407.10 671.63 419.77 671.89 432.41 671.46 C 431.91 666.24 430.80 660.80 427.36 656.68 C 421.23 649.11 408.56 649.05 401.79 655.78 Z" />
<path fill="#ffffff" opacity="1.00" d=" M 493.39 641.38 C 504.38 631.70 519.79 628.41 534.08 630.17 C 545.76 631.42 556.96 637.65 563.50 647.52 C 572.41 660.87 574.41 677.97 571.50 693.52 C 549.47 693.50 527.45 693.48 505.42 693.53 C 506.00 698.81 508.68 703.85 513.06 706.92 C 519.63 711.69 528.04 712.99 535.98 712.84 C 545.07 712.80 554.10 711.30 562.75 708.51 C 564.09 715.77 565.52 723.02 566.92 730.27 C 554.87 735.00 541.83 736.83 528.94 736.75 C 515.20 736.70 500.82 733.07 490.48 723.62 C 480.76 714.93 475.94 701.90 475.25 689.09 C 474.03 671.64 479.95 653.05 493.39 641.38 M 512.63 655.69 C 508.25 659.85 506.10 665.77 505.22 671.63 C 517.83 671.71 530.43 671.64 543.04 671.66 C 542.83 665.05 540.70 657.87 535.09 653.85 C 528.39 649.27 518.47 650.01 512.63 655.69 Z" />
<path fill="#ffffff" opacity="1.00" d=" M 669.11 638.93 C 683.04 631.38 699.32 629.04 714.99 629.96 C 726.45 630.70 738.50 634.92 745.55 644.47 C 753.20 654.55 754.17 667.76 753.83 679.96 C 754.16 698.14 752.82 716.44 755.47 734.50 C 745.90 734.50 736.33 734.50 726.77 734.50 C 725.98 731.07 725.78 727.49 724.54 724.19 C 717.37 732.77 706.01 736.89 695.02 736.77 C 685.66 736.90 676.02 733.45 669.70 726.37 C 658.16 713.85 659.51 692.26 671.88 680.78 C 685.32 668.53 704.59 666.45 722.01 666.23 C 722.24 661.73 720.56 656.90 716.48 654.58 C 710.00 650.82 702.04 651.25 694.88 652.30 C 687.91 653.46 681.19 655.93 675.00 659.31 C 673.02 652.52 671.07 645.72 669.11 638.93 M 702.30 689.39 C 698.57 691.00 695.12 693.87 693.91 697.88 C 692.18 703.24 693.72 710.30 699.20 712.85 C 708.43 717.37 720.73 711.20 722.75 701.16 C 723.28 696.10 722.88 691.00 722.99 685.93 C 716.00 686.14 708.80 686.58 702.30 689.39 Z" />
</g>
<g id="#2971a9ff">
</g>
</svg>
