<?xml version="1.0" encoding="UTF-8" ?>
<!DOCTYPE svg PUBLIC "-//W3C//DTD SVG 1.1//EN" "http://www.w3.org/Graphics/SVG/1.1/DTD/svg11.dtd">
<svg width="1010pt" height="1010pt" viewBox="0 0 1010 1010" version="1.1" xmlns="http://www.w3.org/2000/svg">
<g id="#2d92d9ff">
<path fill="#2d92d9" opacity="1.00" d=" M 0.00 0.00 L 1010.00 0.00 L 1010.00 508.56 C 972.30 471.07 934.81 433.35 897.16 395.82 C 887.23 386.12 877.78 375.94 867.73 366.36 C 867.06 366.90 866.39 367.44 865.74 367.98 C 865.75 367.29 865.76 365.90 865.77 365.20 C 837.51 365.86 809.23 365.33 780.96 365.50 C 774.13 365.69 767.31 365.16 760.49 365.29 C 736.47 403.94 710.25 441.20 682.51 477.25 C 658.63 452.89 634.41 428.86 610.20 404.83 C 608.86 403.38 607.16 402.18 605.09 402.52 C 597.17 391.07 587.14 380.78 574.67 374.35 C 556.38 364.55 535.52 360.31 514.90 359.83 C 493.65 359.61 472.20 363.78 452.99 372.99 C 439.16 379.63 427.00 389.65 417.74 401.86 C 408.28 414.08 401.67 428.24 396.72 442.81 C 394.64 440.07 392.24 437.62 389.72 435.29 C 366.74 412.54 344.05 389.49 321.02 366.80 C 320.25 367.54 319.48 368.29 318.71 369.05 C 318.74 367.78 318.76 366.51 318.77 365.24 C 283.63 365.85 248.46 365.26 213.31 365.58 C 188.50 405.92 160.82 444.42 131.98 481.96 C 126.88 488.52 121.78 495.08 116.42 501.41 C 115.33 502.86 113.90 504.25 113.61 506.12 C 112.14 528.86 112.34 551.71 110.39 574.43 C 110.62 574.52 111.08 574.69 111.30 574.78 C 115.00 580.29 120.04 584.65 124.65 589.36 C 258.16 722.85 391.65 856.36 525.16 989.86 C 531.56 996.60 538.78 1002.59 544.44 1010.00 L 0.00 1010.00 L 0.00 0.00 Z" />
</g>
<g id="#ffffffff">
</g>
<g id="#237bb8ff">
<path fill="#237bb8" opacity="1.00" d=" M 865.74 367.98 C 866.39 367.44 867.06 366.90 867.73 366.36 C 877.78 375.94 887.23 386.12 897.16 395.82 C 934.81 433.35 972.30 471.07 1010.00 508.56 L 1010.00 1010.00 L 544.44 1010.00 C 538.78 1002.59 531.56 996.60 525.16 989.86 C 391.65 856.36 258.16 722.85 124.65 589.36 C 120.04 584.65 115.00 580.29 111.30 574.78 C 149.73 574.56 188.13 573.26 226.56 573.51 C 225.29 597.31 223.50 621.09 221.29 644.82 C 232.53 644.26 243.79 644.58 255.04 644.50 C 272.52 644.65 290.02 644.18 307.49 644.75 C 307.61 621.00 307.73 597.23 309.33 573.52 C 324.22 573.04 339.14 573.07 354.00 574.17 C 353.81 553.71 354.53 533.25 354.49 512.79 C 340.23 513.94 325.92 513.44 311.64 512.96 C 312.43 464.93 315.34 416.96 318.71 369.05 C 319.48 368.29 320.25 367.54 321.02 366.80 C 344.05 389.49 366.74 412.54 389.72 435.29 C 392.24 437.62 394.64 440.07 396.72 442.81 C 386.85 472.39 382.80 503.87 384.60 534.99 C 385.80 552.31 388.56 569.70 394.91 585.94 C 402.50 605.25 416.37 621.99 433.79 633.24 C 448.83 642.73 466.38 647.63 483.97 649.42 C 507.35 651.64 531.39 648.41 553.02 639.13 C 567.45 632.97 580.87 624.04 591.20 612.15 C 600.99 600.86 607.93 587.41 613.31 573.55 C 626.75 536.41 631.54 495.91 625.39 456.80 C 622.26 437.62 615.78 418.82 605.09 402.52 C 607.16 402.18 608.86 403.38 610.20 404.83 C 634.41 428.86 658.63 452.89 682.51 477.25 C 676.16 485.34 669.93 493.53 663.37 501.46 C 661.86 503.31 660.14 505.31 660.31 507.88 C 659.34 530.16 659.08 552.49 657.21 574.73 C 696.00 574.69 734.77 573.11 773.56 573.51 C 772.24 597.28 770.44 621.03 768.19 644.73 C 796.95 644.40 825.74 644.32 854.50 644.75 C 854.64 621.01 854.58 597.22 856.30 573.52 C 871.10 573.05 885.94 573.06 900.71 574.16 C 901.06 569.12 901.02 564.06 901.00 559.01 C 900.90 543.60 901.52 528.20 901.49 512.79 C 887.18 513.82 872.81 513.42 858.50 512.83 C 859.41 464.49 862.30 416.20 865.74 367.98 Z" />
<path fill="#237bb8" opacity="1.00" d=" M 505.57 420.77 C 514.69 419.03 524.71 421.99 531.01 428.92 C 538.59 437.21 542.35 448.22 544.34 459.09 C 546.86 473.03 547.21 487.29 546.19 501.41 C 545.04 514.70 544.36 528.12 540.87 541.07 C 537.05 555.76 532.43 571.32 521.10 582.10 C 514.21 589.10 503.51 591.65 494.10 589.10 C 486.58 587.32 480.55 581.80 476.34 575.53 C 466.75 560.28 465.79 541.56 465.48 524.06 C 466.85 498.10 467.58 471.24 478.23 447.06 C 483.02 435.07 492.21 423.27 505.57 420.77 Z" />
<path fill="#237bb8" opacity="1.00" d=" M 216.49 462.45 C 225.51 449.73 233.68 436.45 242.52 423.62 C 241.59 454.40 239.32 485.14 238.52 515.93 C 218.27 516.22 198.04 516.02 177.78 515.99 C 190.68 498.14 203.79 480.45 216.49 462.45 Z" />
<path fill="#237bb8" opacity="1.00" d=" M 758.49 469.48 C 769.22 454.45 779.06 438.80 789.53 423.59 C 788.60 447.74 787.23 471.87 786.21 496.02 C 785.82 502.57 785.30 509.12 785.51 515.69 C 773.36 516.31 761.18 515.86 749.02 516.00 C 740.96 515.86 732.88 516.31 724.84 515.72 C 736.14 500.37 747.24 484.87 758.49 469.48 Z" />
</g>
</svg>
