<svg width="34" height="30" viewBox="0 0 34 30" fill="none" xmlns="http://www.w3.org/2000/svg">
    <path id="icon-alarm"
        d="M17 0C7.62862 0 0 7.8879 0 17.5778C0 22.43 1.90916 26.8185 4.98612 30L6.96739 27.9514C4.39624 25.2928 2.81001 21.6165 2.81001 17.5778C2.81001 9.48594 9.17413 2.90551 17 2.90551C24.8259 2.90551 31.19 9.48594 31.19 17.5778C31.19 21.6165 29.6038 25.2928 27.0326 27.9514L29.0139 30C32.0908 26.8185 34 22.43 34 17.5778C34 7.8879 26.3714 0 17 0ZM17 5.76847C10.6915 5.76847 5.56239 11.0694 5.56239 17.5778C5.56239 20.832 6.84182 23.7956 8.92123 25.9311L10.9025 23.8825C9.34295 22.27 8.3724 20.0475 8.3724 17.5778C8.3724 12.6675 12.2511 8.67398 17 8.67398C21.7489 8.67398 25.6276 12.6675 25.6276 17.5778C25.6276 20.0475 24.6571 22.27 23.0975 23.8825L25.0788 25.9311C27.1582 23.7956 28.4376 20.832 28.4376 17.5778C28.4376 11.0694 23.3085 5.76847 17 5.76847ZM17 12.9727C14.5412 12.9727 12.5462 15.0355 12.5462 17.5778C12.5462 18.8562 13.0376 20.0042 13.8525 20.8323V20.8465C14.6533 21.6746 15.7636 22.1971 17 22.1971C18.2364 22.1971 19.3467 21.6746 20.1475 20.8465V20.8323C20.9624 20.0042 21.4538 18.8562 21.4538 17.5778C21.4538 15.0355 19.4588 12.9727 17 12.9727Z"
        fill="#298BE8" />
</svg>