<svg width="31" height="31" viewBox="0 0 31 31" class="asas" xmlns="http://www.w3.org/2000/svg">
  <path id="icon-antena"
    d="M23.9545 0C23.5808 3.73647e-05 23.2225 0.148507 22.9582 0.412754C22.694 0.677002 22.5455 1.03539 22.5455 1.40909V29.5909C22.5455 29.9646 22.694 30.323 22.9582 30.5872C23.2225 30.8515 23.5808 31 23.9545 31H29.5909C29.9646 31 30.323 30.8515 30.5872 30.5872C30.8515 30.323 31 29.9646 31 29.5909V1.40909C31 1.03539 30.8515 0.677002 30.5872 0.412754C30.323 0.148507 29.9646 3.73647e-05 29.5909 0H23.9545ZM25.3636 2.81818H28.1818V28.1818H25.3636V2.81818ZM12.6818 8.45455C11.904 8.45455 11.2727 9.08582 11.2727 9.86364V29.5909C11.2727 30.3687 11.904 31 12.6818 31H18.3182C19.096 31 19.7273 30.3687 19.7273 29.5909V9.86364C19.7273 9.08582 19.096 8.45455 18.3182 8.45455H12.6818ZM1.40909 16.9091C0.631273 16.9091 0 17.5404 0 18.3182V29.5909C0 30.3687 0.631273 31 1.40909 31H7.04545C7.82327 31 8.45455 30.3687 8.45455 29.5909V18.3182C8.45455 17.5404 7.82327 16.9091 7.04545 16.9091H1.40909Z" fill="#298BE8"/>
</svg>