<svg height="15px" viewBox="0 0 37 18" fill="none" xmlns="http://www.w3.org/2000/svg">
    <path id="icon-battery"
        d="M3.82759 0C1.72883 0 0 1.62604 0 3.6L0 14.4C0 16.374 1.72883 18 3.82759 18L29.3448 18C31.4436 18 33.1724 16.374 33.1724 14.4V3.6C33.1724 1.62604 31.4436 0 29.3448 0L3.82759 0ZM3.82759 2.4L29.3448 2.4C30.0657 2.4 30.6207 2.92196 30.6207 3.6L30.6207 14.4C30.6207 15.078 30.0657 15.6 29.3448 15.6L3.82759 15.6C3.10669 15.6 2.55172 15.078 2.55172 14.4L2.55172 3.6C2.55172 2.92196 3.10669 2.4 3.82759 2.4ZM5.10345 4.8L5.10345 13.2L23.5455 13.2L23.5455 4.8L5.10345 4.8ZM34.4483 6V12H35.7241C36.4284 12 37 11.4624 37 10.8V7.2C37 6.5376 36.4284 6 35.7241 6H34.4483Z"
        fill="#1AE85E" />
</svg>