<?xml version="1.0" encoding="UTF-8" ?>
<!DOCTYPE svg PUBLIC "-//W3C//DTD SVG 1.1//EN" "http://www.w3.org/Graphics/SVG/1.1/DTD/svg11.dtd">
<svg width="1228pt" height="768pt" viewBox="0 0 1228 768" version="1.1" xmlns="http://www.w3.org/2000/svg">
<g id="#000000ff">
</g>
<g id="#ffffffff">
<path fill="#ffffff" opacity="1.00" d=" M 1049.38 0.00 L 1050.65 0.00 C 1053.18 2.17 1056.27 3.44 1059.31 4.72 C 1066.98 9.05 1073.88 14.89 1079.09 22.03 C 1087.30 32.62 1090.40 45.89 1093.94 58.54 C 1097.69 51.79 1098.35 43.96 1098.81 36.40 C 1114.10 40.72 1128.62 47.51 1142.19 55.73 C 1152.97 61.57 1161.29 71.05 1167.48 81.49 C 1173.89 92.68 1183.27 102.32 1194.77 108.31 C 1199.67 110.93 1205.03 112.51 1210.24 114.42 C 1199.29 135.11 1189.16 156.26 1177.36 176.48 C 1143.14 168.55 1105.32 175.01 1076.68 195.70 C 1064.00 204.84 1054.05 217.06 1044.16 229.01 C 1036.15 221.84 1032.78 211.17 1025.64 203.29 C 1026.21 218.33 1025.62 233.60 1021.58 248.19 C 1018.10 261.46 1010.97 273.48 1002.45 284.13 L 1002.18 282.33 L 1002.23 284.02 C 997.83 290.07 992.00 295.00 985.98 299.39 C 949.70 298.33 913.33 303.78 878.75 314.70 C 820.64 333.24 766.80 366.35 725.82 411.72 C 704.13 398.08 678.07 394.86 653.11 392.39 C 679.78 348.12 711.35 306.46 749.47 271.40 C 771.87 250.27 796.86 231.81 824.12 217.42 C 814.49 218.81 805.34 222.29 796.54 226.31 C 784.57 231.91 772.38 237.14 761.00 243.91 C 731.77 260.92 706.35 283.55 681.93 306.74 C 689.71 283.05 698.56 259.22 699.79 234.06 C 700.58 216.75 697.84 198.58 688.33 183.78 C 679.22 170.07 664.88 159.97 648.94 155.91 C 625.39 149.83 600.17 149.68 576.75 156.43 C 597.16 155.48 618.12 156.50 637.49 163.55 C 649.18 168.00 660.94 174.08 668.53 184.36 C 678.16 196.97 681.71 213.49 679.87 229.11 C 677.55 251.98 667.41 273.22 655.39 292.52 C 638.34 319.84 612.93 340.41 587.39 359.40 C 577.23 366.87 566.22 374.60 560.99 386.54 C 564.24 390.38 567.56 394.70 572.61 396.18 C 590.61 401.90 609.46 404.05 628.13 406.25 C 649.41 408.48 670.61 412.03 691.09 418.33 C 697.17 420.35 703.17 422.90 708.38 426.68 C 718.28 434.24 723.83 446.68 724.24 458.99 C 724.51 472.25 719.41 484.98 712.77 496.23 L 712.36 496.35 C 696.83 492.22 681.89 486.19 666.50 481.62 C 660.45 479.96 655.63 484.91 651.11 488.06 C 635.29 498.52 618.94 508.45 601.18 515.28 C 585.03 521.44 567.40 524.82 550.15 522.34 C 540.79 520.97 532.53 515.41 526.98 507.87 C 529.35 504.06 531.21 499.46 535.40 497.29 C 553.63 487.70 573.78 482.12 591.41 471.32 C 595.71 468.77 599.43 465.37 602.66 461.58 C 561.69 445.62 518.90 434.90 477.87 419.09 C 474.36 409.88 475.12 399.23 479.74 390.53 C 486.02 378.76 494.87 368.42 499.81 355.92 C 504.01 345.40 508.47 334.41 507.62 322.85 C 506.65 314.26 498.81 308.11 490.90 306.02 C 463.30 299.42 434.16 307.03 406.83 298.60 C 394.47 295.17 385.58 284.41 381.10 272.81 C 375.71 259.25 373.89 244.36 375.41 229.87 C 376.75 216.03 380.59 202.61 384.55 189.33 C 330.36 223.91 285.74 270.69 237.28 312.41 C 212.52 333.57 186.91 354.49 157.18 368.32 C 135.43 378.49 110.86 384.35 86.89 380.05 C 73.26 377.50 59.23 372.83 49.19 362.84 C 35.98 350.15 28.46 332.26 26.91 314.14 C 25.46 299.32 26.12 283.51 33.40 270.15 C 36.89 264.15 41.74 257.96 48.87 256.37 C 56.15 254.64 64.03 258.71 67.60 265.07 C 73.35 284.65 67.56 305.85 74.67 325.17 C 78.44 336.47 88.97 345.27 100.88 346.52 C 114.10 348.39 127.07 343.46 138.54 337.35 C 169.66 320.48 196.81 297.47 223.70 274.70 C 279.82 227.66 333.82 177.64 395.06 137.15 C 424.73 117.51 456.23 100.19 490.06 88.88 C 510.95 82.32 532.08 76.08 553.87 73.31 C 594.81 67.68 636.21 72.77 676.81 78.75 C 727.58 86.52 777.83 97.82 828.99 102.96 C 866.64 106.64 905.10 107.61 942.22 99.23 C 976.23 91.63 1009.09 76.50 1034.77 52.63 C 1035.29 34.29 1039.10 15.49 1049.38 0.00 Z" />
<path fill="#ffffff" opacity="1.00" d=" M 209.28 523.31 C 226.62 523.40 243.97 523.14 261.31 523.45 C 261.18 555.01 261.27 586.58 261.30 618.14 C 264.50 615.07 267.30 611.61 270.69 608.74 C 291.44 590.41 326.15 589.24 346.82 608.28 C 361.62 622.22 366.61 643.34 367.11 663.00 C 367.19 696.75 367.26 730.50 367.05 764.25 C 349.91 764.09 332.77 764.22 315.63 764.15 C 315.55 733.19 315.65 702.23 315.55 671.27 C 315.37 660.99 313.58 649.57 305.76 642.16 C 295.55 633.36 278.51 634.62 269.35 644.38 C 263.19 650.52 260.64 659.45 261.31 667.99 C 261.19 700.05 261.29 732.10 261.25 764.15 C 243.99 764.26 226.73 764.06 209.47 764.28 C 209.07 683.96 209.38 603.63 209.28 523.31 Z" />
<path fill="#ffffff" opacity="1.00" d=" M 1069.72 523.44 C 1087.06 523.17 1104.41 523.35 1121.75 523.35 C 1121.79 555.02 1121.65 586.70 1121.86 618.37 C 1128.42 610.33 1136.60 603.45 1146.19 599.33 C 1163.14 592.13 1183.64 592.83 1199.54 602.37 C 1213.54 610.81 1221.79 626.23 1225.11 641.84 C 1226.89 648.84 1226.92 656.09 1228.00 663.18 L 1228.00 764.12 C 1210.71 764.18 1193.41 764.18 1176.12 764.19 C 1176.01 732.78 1176.20 701.38 1176.02 669.98 C 1175.73 660.90 1174.10 651.21 1168.07 644.06 C 1161.46 636.49 1150.12 634.58 1140.83 637.61 C 1131.57 640.40 1124.33 648.66 1122.49 658.12 C 1121.26 664.34 1121.90 670.72 1121.75 677.02 C 1121.75 706.06 1121.75 735.11 1121.75 764.15 C 1104.43 764.17 1087.11 764.16 1069.78 764.15 C 1069.73 683.91 1069.86 603.68 1069.72 523.44 Z" />
<path fill="#ffffff" opacity="1.00" d=" M 97.10 534.70 C 117.71 530.98 138.99 531.50 159.56 535.28 C 167.15 536.78 174.83 538.61 181.59 542.51 C 177.97 556.02 174.42 569.55 170.74 583.05 C 149.09 574.55 124.55 571.50 102.04 578.43 C 87.61 582.58 74.74 591.89 66.71 604.62 C 57.25 618.79 54.51 636.24 54.76 652.97 C 55.06 669.42 59.50 686.21 69.57 699.44 C 79.77 712.73 95.67 720.93 112.08 723.42 C 131.76 726.30 152.10 723.90 170.81 717.28 C 173.93 730.81 176.20 744.56 178.83 758.21 C 158.88 765.89 137.28 768.07 116.05 767.79 C 93.68 767.38 71.00 762.53 51.51 751.25 C 23.40 735.26 5.40 704.70 1.78 672.92 C -1.46 649.44 0.80 625.03 9.56 602.94 C 16.20 585.98 27.44 570.93 41.53 559.45 C 57.44 546.46 76.98 538.37 97.10 534.70 Z" />
<path fill="#ffffff" opacity="1.00" d=" M 774.08 562.44 C 790.89 558.66 807.64 554.57 824.44 550.71 C 824.54 566.56 824.24 582.42 824.58 598.26 C 836.86 598.09 849.15 598.22 861.43 598.22 C 861.44 610.88 861.44 623.55 861.43 636.22 C 849.11 636.23 836.79 636.19 824.47 636.24 C 824.52 655.19 824.33 674.14 824.53 693.09 C 824.58 700.39 824.32 707.97 827.03 714.89 C 828.61 718.96 831.70 722.66 835.96 724.01 C 843.79 726.61 852.12 725.03 860.06 723.80 C 860.14 736.94 860.36 750.07 860.39 763.21 C 842.95 767.94 824.05 770.18 806.53 764.62 C 794.08 760.87 783.26 751.34 778.94 738.96 C 773.13 723.34 773.92 706.41 773.91 690.05 C 773.75 672.06 774.19 654.07 773.69 636.09 C 766.29 636.27 758.90 636.23 751.50 636.18 C 751.53 623.51 751.41 610.84 751.57 598.17 C 759.01 598.26 766.45 598.15 773.90 598.18 C 774.01 586.27 773.70 574.35 774.08 562.44 Z" />
<path fill="#ffffff" opacity="1.00" d=" M 440.00 605.18 C 454.17 597.08 470.78 593.82 487.00 594.62 C 504.54 595.09 522.30 601.63 534.68 614.32 C 544.10 624.17 550.38 636.75 553.75 649.89 C 557.73 665.49 557.86 681.93 555.07 697.74 C 519.35 697.94 483.63 697.57 447.91 697.95 C 449.09 706.88 453.86 715.50 461.59 720.34 C 474.59 729.05 490.96 729.75 506.08 728.75 C 517.86 727.98 529.54 725.69 540.76 722.03 C 542.99 733.78 545.28 745.52 547.57 757.26 C 526.17 765.72 502.87 768.50 479.98 767.64 C 460.36 766.66 440.26 760.84 425.17 747.80 C 412.06 736.72 403.96 720.60 400.76 703.91 C 396.87 683.22 398.87 661.25 407.54 641.99 C 414.32 626.85 425.49 613.42 440.00 605.18 M 459.11 637.12 C 452.38 643.79 449.15 653.11 447.63 662.27 C 468.11 662.38 488.59 662.75 509.06 662.07 C 508.20 652.98 506.06 643.33 499.46 636.59 C 488.88 625.78 469.53 626.37 459.11 637.12 Z" />
<path fill="#ffffff" opacity="1.00" d=" M 603.95 616.96 C 616.08 604.57 632.77 597.30 649.86 595.24 C 666.72 593.27 684.62 594.98 699.61 603.46 C 710.29 609.32 719.13 618.36 724.84 629.11 C 736.30 649.85 738.48 674.68 734.35 697.74 C 698.65 697.90 662.96 697.72 627.26 697.85 C 628.31 707.02 633.37 715.80 641.34 720.63 C 654.17 728.99 670.14 729.73 684.97 728.78 C 696.93 728.09 708.71 725.57 720.16 722.15 C 722.29 733.89 724.60 745.59 726.87 757.31 C 710.68 763.67 693.35 766.80 676.01 767.60 C 659.19 768.49 641.96 767.05 626.20 760.78 C 611.61 755.10 598.66 744.90 590.54 731.43 C 580.44 714.93 577.17 695.03 578.43 675.93 C 579.95 654.19 588.36 632.48 603.95 616.96 M 638.28 637.26 C 631.64 643.95 628.38 653.20 626.95 662.34 C 647.36 662.47 667.78 662.38 688.19 662.40 C 687.79 652.38 684.83 641.67 676.97 634.91 C 665.98 625.82 648.12 626.97 638.28 637.26 Z" />
<path fill="#ffffff" opacity="1.00" d=" M 892.24 609.48 C 906.88 601.41 923.36 597.09 939.92 595.40 C 956.68 593.96 974.12 593.81 990.12 599.73 C 1001.26 603.73 1011.42 610.96 1017.91 620.98 C 1025.64 632.45 1028.52 646.42 1029.30 660.04 C 1030.54 694.72 1027.29 729.64 1032.12 764.15 C 1016.64 764.19 1001.16 764.10 985.69 764.20 C 984.37 758.95 984.05 753.48 982.35 748.33 C 982.15 748.27 981.77 748.13 981.58 748.06 C 972.80 758.18 960.21 764.50 947.11 766.77 C 934.23 768.96 920.49 768.08 908.59 762.37 C 897.87 757.38 889.09 748.33 884.54 737.40 C 878.18 722.25 879.25 704.27 887.03 689.83 C 893.36 677.76 905.00 669.49 917.17 664.01 C 936.22 655.62 957.36 653.91 977.94 653.63 C 978.26 646.74 975.78 639.14 969.74 635.27 C 961.22 629.93 950.70 629.34 940.93 630.26 C 927.19 631.37 913.90 635.90 901.82 642.44 C 898.59 631.46 895.51 620.44 892.24 609.48 M 946.10 691.12 C 940.37 693.57 935.06 697.85 932.82 703.82 C 930.33 710.58 930.96 718.73 935.38 724.57 C 937.91 727.93 941.88 729.85 945.89 730.83 C 959.70 734.16 975.48 725.06 978.88 711.14 C 980.16 702.67 979.25 694.06 979.50 685.54 C 968.21 685.90 956.60 686.59 946.10 691.12 Z" />
</g>
</svg>
