<?xml version="1.0" encoding="utf-8"?>
<svg xmlns="http://www.w3.org/2000/svg" viewBox="0 0 30 30" width="480" height="480">
  <path d="M22.828125 3C22.316375 3 21.804562 3.1954375 21.414062 3.5859375L19 6L24 11L26.414062 8.5859375C27.195062 7.8049375 27.195062 6.5388125 26.414062 5.7578125L24.242188 3.5859375C23.851688 3.1954375 23.339875 3 22.828125 3 z M 17 8L5.2597656 19.740234C5.2597656 19.740234 6.1775313 19.658 6.5195312 20C6.8615312 20.342 6.58 22.58 7 23C7.42 23.42 9.6438906 23.124359 9.9628906 23.443359C10.281891 23.762359 10.259766 24.740234 10.259766 24.740234L22 13L17 8 z M 4 23L3.0566406 25.671875 A 1 1 0 0 0 3 26 A 1 1 0 0 0 4 27 A 1 1 0 0 0 4.328125 26.943359 A 1 1 0 0 0 4.3378906 26.939453L4.3632812 26.931641 A 1 1 0 0 0 4.3691406 26.927734L7 26L5.5 24.5L4 23 z" fill="#298BE8" />
</svg>