<?xml version="1.0" encoding="utf-8"?>
<svg xmlns="http://www.w3.org/2000/svg" viewBox="0 0 30 30" width="480" height="480">
  <path d="M5.9960938 4 A 1.0001 1.0001 0 0 0 5.0429688 4.7128906L2.0429688 14.712891 A 1.0001 1.0001 0 1 0 3.9570312 15.287109L5.7480469 9.3203125L8.015625 22.173828 A 1.0001 1.0001 0 0 0 9.9785156 22.208984L12.138672 12.125L13.039062 15.275391 A 1.0001 1.0001 0 0 0 14 16L16.279297 16C16.626293 16.594524 17.263219 17 18 17C19.103 17 20 16.103 20 15C20 13.897 19.103 13 18 13C17.263219 13 16.626293 13.405476 16.279297 14L14.753906 14L12.960938 7.7246094 A 1.0001 1.0001 0 0 0 11.021484 7.7910156L9.09375 16.783203L6.984375 4.8261719 A 1.0001 1.0001 0 0 0 5.9960938 4 z M 22.158203 6.0253906 A 1.0001 1.0001 0 0 0 21.707031 7.9179688C24.254988 9.2577354 26 11.92117 26 15C26 18.07883 24.254988 20.742265 21.707031 22.082031 A 1.0001 1.0001 0 1 0 22.638672 23.851562C25.822715 22.177329 28 18.83517 28 15C28 11.16483 25.822715 7.8226708 22.638672 6.1484375 A 1.0001 1.0001 0 0 0 22.158203 6.0253906 z M 20.294922 9.5859375 A 1.0001 1.0001 0 0 0 19.84375 11.476562C21.124108 12.149717 22 13.461597 22 15C22 16.538403 21.124108 17.850283 19.84375 18.523438 A 1.0001 1.0001 0 1 0 20.773438 20.292969C22.67708 19.292122 24 17.301597 24 15C24 12.698403 22.67708 10.707878 20.773438 9.7070312 A 1.0001 1.0001 0 0 0 20.294922 9.5859375 z" fill="#298BE8" />
</svg>