<?xml version="1.0" encoding="utf-8"?>
<svg xmlns="http://www.w3.org/2000/svg" viewBox="0 0 30 30" width="480" height="480">
  <path d="M7.3242188 3.3613281 A 1.0001 1.0001 0 0 0 6.4335938 3.859375C5.5326218 5.3587783 5 7.1182786 5 9C5 10.881721 5.5326218 12.641222 6.4335938 14.140625 A 1.0001 1.0001 0 1 0 8.1464844 13.111328C7.4214562 11.904731 7 10.506279 7 9C7 7.4937214 7.4214562 6.0952685 8.1464844 4.8886719 A 1.0001 1.0001 0 0 0 7.3242188 3.3613281 z M 22.646484 3.3632812 A 1.0001 1.0001 0 0 0 21.853516 4.8886719C22.578544 6.0952685 23 7.4937214 23 9C23 10.506279 22.578544 11.904731 21.853516 13.111328 A 1.0001 1.0001 0 1 0 23.566406 14.140625C24.467378 12.641222 25 10.881721 25 9C25 7.1182786 24.467378 5.3587783 23.566406 3.859375 A 1.0001 1.0001 0 0 0 22.646484 3.3632812 z M 10.761719 5.4257812 A 1.0001 1.0001 0 0 0 9.8710938 5.921875C9.3356814 6.8114648 9 7.8634633 9 9C9 10.136537 9.3356814 11.188535 9.8710938 12.078125 A 1.0001 1.0001 0 1 0 11.583984 11.046875C11.215397 10.434465 11 9.7454633 11 9C11 8.2545367 11.215397 7.5655352 11.583984 6.953125 A 1.0001 1.0001 0 0 0 10.761719 5.4257812 z M 19.207031 5.4257812 A 1.0001 1.0001 0 0 0 18.416016 6.953125C18.784603 7.5655352 19 8.2545367 19 9C19 9.7454633 18.784603 10.434465 18.416016 11.046875 A 1.0001 1.0001 0 1 0 20.128906 12.078125C20.664319 11.188535 21 10.136537 21 9C21 7.8634633 20.664319 6.8114648 20.128906 5.921875 A 1.0001 1.0001 0 0 0 19.207031 5.4257812 z M 15 7 A 2 2 0 0 0 13 9 A 2 2 0 0 0 13.480469 10.298828L10.388672 19.0625 A 1.0001 1.0001 0 0 0 10.355469 19.15625L8.0566406 25.667969 A 1.0004882 1.0004882 0 0 0 8.0371094 25.732422 A 1.0001 1.0001 0 0 0 8.0058594 25.876953 A 1.0004882 1.0004882 0 0 0 8.0039062 25.900391 A 1.0001 1.0001 0 0 0 8.0019531 26.080078 A 1.0004882 1.0004882 0 0 0 8.0019531 26.082031 A 1.0004882 1.0004882 0 0 0 8.0019531 26.085938 A 1.0001 1.0001 0 0 0 9.3203125 26.951172L19.361328 24.363281L20.056641 26.332031 A 1.0001 1.0001 0 1 0 21.943359 25.667969L18.546875 16.042969 A 1.0001 1.0001 0 0 0 18.441406 15.744141L16.519531 10.298828 A 2 2 0 0 0 17 9 A 2 2 0 0 0 15 7 z M 15 12.003906L16.318359 15.738281L13.095703 17.400391L15 12.003906 z M 16.990234 17.642578L18.298828 21.351562L13.654297 19.363281L16.990234 17.642578 z M 11.900391 20.787109L16.908203 22.931641L10.568359 24.564453L11.900391 20.787109 z" fill="#298BE8" />
</svg>