<?xml version="1.0" encoding="UTF-8"?>
<svg id="Layer_1" xmlns="http://www.w3.org/2000/svg" version="1.1" xmlns:xlink="http://www.w3.org/1999/xlink" viewBox="0 0 854.2 850.6">
  <!-- Generator: Adobe Illustrator 29.0.1, SVG Export Plug-In . SVG Version: 2.1.0 Build 192)  -->
  <defs>
    <style>
      .st0 {
        fill: url(#linear-gradient2);
      }

      .st1 {
        fill: url(#linear-gradient);
      }

      .st1, .st2, .st3 {
        isolation: isolate;
      }

      .st1, .st4, .st5 {
        mix-blend-mode: overlay;
      }

      .st6 {
        fill: none;
      }

      .st2 {
        fill: url(#linear-gradient1);
        mix-blend-mode: soft-light;
        opacity: .6;
      }

      .st7 {
        fill: url(#linear-gradient4);
      }

      .st8 {
        fill: url(#linear-gradient3);
      }

      .st5 {
        opacity: .4;
      }

      .st9 {
        clip-path: url(#clippath);
      }
    </style>
    <clipPath id="clippath">
      <rect class="st6" x="104.2" width="750" height="500"/>
    </clipPath>
    <linearGradient id="linear-gradient" x1="-1297.3" y1="849.7" x2="-878.8" y2="408" gradientTransform="translate(-314 852) rotate(-180)" gradientUnits="userSpaceOnUse">
      <stop offset="0" stop-color="#fff"/>
      <stop offset="0" stop-color="#fff" stop-opacity=".8"/>
      <stop offset=".2" stop-color="#fff" stop-opacity=".6"/>
      <stop offset=".3" stop-color="#fff" stop-opacity=".5"/>
      <stop offset=".4" stop-color="#fff" stop-opacity=".3"/>
      <stop offset=".5" stop-color="#fff" stop-opacity=".2"/>
      <stop offset=".6" stop-color="#fff" stop-opacity=".1"/>
      <stop offset=".7" stop-color="#fff" stop-opacity="0"/>
      <stop offset=".8" stop-color="#fff" stop-opacity="0"/>
      <stop offset="1" stop-color="#fff" stop-opacity="0"/>
    </linearGradient>
    <linearGradient id="linear-gradient1" x1="461.1" y1="533.7" x2="387.7" y2="433.4" gradientTransform="translate(-46.6 -243.5)" gradientUnits="userSpaceOnUse">
      <stop offset=".2" stop-color="#000" stop-opacity="0"/>
      <stop offset=".7" stop-color="#060606" stop-opacity=".5"/>
      <stop offset=".7" stop-color="#0f0e0e" stop-opacity=".6"/>
      <stop offset=".8" stop-color="#1c1a1b" stop-opacity=".8"/>
      <stop offset=".9" stop-color="#242122" stop-opacity="1"/>
      <stop offset="1" stop-color="#272425"/>
    </linearGradient>
    <linearGradient id="linear-gradient2" x1="-1669.5" y1="-203.5" x2="-1314.6" y2="174.5" gradientTransform="translate(-671.5 34.4) rotate(-180) scale(1 -1)" gradientUnits="userSpaceOnUse">
      <stop offset="0" stop-color="#fff"/>
      <stop offset="1" stop-color="#fff" stop-opacity="0"/>
    </linearGradient>
    <linearGradient id="linear-gradient3" x1="-1575.9" y1="-312.3" x2="-1221" y2="65.7" gradientTransform="translate(-671.5 34.4) rotate(-180) scale(1 -1)" gradientUnits="userSpaceOnUse">
      <stop offset="0" stop-color="#fff"/>
      <stop offset="1" stop-color="#fff" stop-opacity="0"/>
    </linearGradient>
    <linearGradient id="linear-gradient4" x1="-1652.7" y1="-5.6" x2="-1297.9" y2="372.4" gradientTransform="translate(-671.5 34.4) rotate(-180) scale(1 -1)" gradientUnits="userSpaceOnUse">
      <stop offset="0" stop-color="#fff" stop-opacity="0"/>
      <stop offset=".5" stop-color="#fff" stop-opacity=".4"/>
      <stop offset="1" stop-color="#fff"/>
    </linearGradient>
  </defs>
  <g class="st3">
    <g id="OBJECTS">
      <g class="st9">
        <g>
          <polygon class="st1" points="854.2 0 351.4 502.9 653.2 502.9 854.2 304.9 854.2 0"/>
          <polygon class="st2" points="116.8 510.9 639 .2 745.2 0 116.8 625.5 116.8 510.9"/>
          <g>
            <g class="st4">
              <path class="st0" d="M922-116.4c9.3,0,18.7,3.6,25.8,10.7,14.2,14.3,14.2,37.4,0,51.6l-255.9,255.9c-14.2,14.2-37.4,14.2-51.6,0-14.2-14.2-14.2-37.4,0-51.6l255.9-255.9c7.1-7.1,16.5-10.7,25.8-10.7Z"/>
            </g>
            <g class="st4">
              <path class="st8" d="M828.4-225.1c9.3,0,18.7,3.6,25.8,10.7,14.2,14.2,14.2,37.4,0,51.6l-255.9,255.9c-14.2,14.2-37.4,14.2-51.6,0-14.2-14.2-14.2-37.4,0-51.6l255.9-255.9c7.1-7.1,16.5-10.7,25.8-10.7Z"/>
            </g>
            <g class="st5">
              <path class="st7" d="M905.3,81.5c9.3,0,18.7,3.6,25.8,10.7,14.2,14.2,14.2,37.4,0,51.6l-255.9,255.9c-14.2,14.2-37.4,14.2-51.6,0-14.2-14.2-14.2-37.4,0-51.6l255.9-255.9c7.1-7.1,16.5-10.7,25.8-10.7Z"/>
            </g>
          </g>
        </g>
      </g>
    </g>
  </g>
</svg>