<?xml version="1.0" encoding="utf-8"?>
<svg xmlns="http://www.w3.org/2000/svg" viewBox="0 0 30 30" width="480" height="480">
  <path d="M21 4 A 1.0001 1.0001 0 0 0 20 5L20 25 A 1.0001 1.0001 0 0 0 21 26L25 26 A 1.0001 1.0001 0 0 0 26 25L26 5 A 1.0001 1.0001 0 0 0 25 4L21 4 z M 22 6L24 6L24 24L22 24L22 6 z M 13 10C12.448 10 12 10.448 12 11L12 25C12 25.552 12.448 26 13 26L17 26C17.552 26 18 25.552 18 25L18 11C18 10.448 17.552 10 17 10L13 10 z M 5 16C4.448 16 4 16.448 4 17L4 25C4 25.552 4.448 26 5 26L9 26C9.552 26 10 25.552 10 25L10 17C10 16.448 9.552 16 9 16L5 16 z" fill="#E8CC2A" />
</svg>